<?xml version="1.0" encoding="UTF-8"?>
<!DOCTYPE svg PUBLIC "-//W3C//DTD SVG 1.1//EN" "http://www.w3.org/Graphics/SVG/1.1/DTD/svg11.dtd">
<!-- Creator: CorelDRAW X7 -->
<svg xmlns="http://www.w3.org/2000/svg" xml:space="preserve" width="1110px" height="527px" version="1.1" style="shape-rendering:geometricPrecision; text-rendering:geometricPrecision; image-rendering:optimizeQuality; fill-rule:evenodd; clip-rule:evenodd"
viewBox="0 0 237 112"
 xmlns:xlink="http://www.w3.org/1999/xlink">
 <defs>
  <style type="text/css">
   <![CDATA[
    .fil1 {fill:#FEFEFE}
    .fil0 {fill:#FEFEFE;fill-rule:nonzero}
   ]]>
  </style>
 </defs>
 <g id="Layer_x0020_1">
  <metadata id="CorelCorpID_0Corel-Layer"/>
  <polygon class="fil0" points="14,105 14,105 0,81 5,81 16,100 27,81 32,81 18,105 "/>
  <path id="1" class="fil0" d="M37 105c-1,0 -2,0 -3,0 0,-1 -1,-1 -1,-2 -1,-1 -1,-2 -1,-2l0 -10c0,-1 0,-2 1,-3 0,0 1,-1 1,-1 1,-1 2,-1 3,-1l10 0c1,0 2,0 2,1 1,0 2,1 2,1 0,1 1,2 1,3l0 10c0,0 -1,1 -1,2 0,1 -1,1 -2,2 0,0 -1,0 -2,0l-10 0 0 0zm0 -4l10 0c0,0 0,0 0,0 0,0 0,0 0,-1l0 -9c0,0 0,0 0,-1 0,0 0,0 0,0l-10 0c0,0 0,0 -1,0 0,1 0,1 0,1l0 9c0,1 0,1 0,1 1,0 1,0 1,0z"/>
  <path id="2" class="fil0" d="M58 105c-1,0 -1,0 -2,0 -1,-1 -1,-1 -2,-2 0,-1 0,-2 0,-2l0 -15 4 0 0 14c0,1 0,1 0,1 0,0 0,0 0,0l11 0c0,0 0,0 0,0 0,0 0,0 0,-1l0 -14 4 0 0 15c0,0 0,1 0,2 -1,1 -1,1 -2,2 -1,0 -1,0 -2,0l-11 0 0 0z"/>
  <path id="3" class="fil0" d="M80 105c-1,0 -1,0 -2,0 -1,-1 -1,-1 -2,-2 0,-1 0,-2 0,-2l0 -10c0,-1 0,-2 0,-3 1,0 1,-1 2,-1 1,-1 1,-1 2,-1l15 0 0 4 -15 0c0,0 0,0 0,0 0,1 0,1 0,1l0 9c0,1 0,1 0,1 0,0 0,0 0,0l15 0 0 4 -15 0 0 0z"/>
  <path id="4" class="fil0" d="M98 105l0 0 0 -25 4 0 0 6 11 0c0,0 1,0 2,1 0,0 1,1 1,1 1,1 1,2 1,3l0 14 -4 0 0 -14c0,0 0,0 0,-1 0,0 -1,0 -1,0l-10 0c0,0 0,0 0,0 0,1 0,1 0,1l0 14 -4 0z"/>
  <path id="5" class="fil0" d="M124 105c-1,0 -2,0 -3,0 0,-1 -1,-1 -1,-2 -1,-1 -1,-2 -1,-2l0 -10c0,-1 0,-2 1,-3 0,0 1,-1 1,-1 1,-1 2,-1 3,-1l10 0c1,0 2,0 2,1 1,0 2,1 2,1 1,1 1,2 1,3l0 7 -15 0 0 2c0,1 0,1 0,1 0,0 0,0 0,0l15 0 0 4 -15 0 0 0zm-1 -11l11 0 0 -3c0,0 0,0 0,-1 0,0 0,0 0,0l-10 0c0,0 0,0 0,0 0,1 0,1 0,1l-1 3z"/>
  <path id="6" class="fil0" d="M142 105l0 0 0 -14c0,-1 0,-2 0,-3 1,0 1,-1 2,-1 1,-1 1,-1 2,-1l11 0 0 4 -11 0c0,0 0,0 0,0 0,1 0,1 0,1l0 14 -4 0z"/>
  <path id="7" class="fil0" d="M159 105l0 -24 19 0c1,0 2,1 2,1 1,0 1,1 2,2 0,0 1,1 1,2l0 6c0,1 -1,2 -1,3 -1,0 -1,1 -2,1 0,1 -1,1 -2,1l-15 0 0 8 -4 0zm4 -12l15 0c0,0 0,0 0,0 0,-1 0,-1 0,-1l0 -6c0,0 0,0 0,0 0,0 0,0 0,0l-15 0c0,0 0,0 0,0 0,0 0,0 0,0l0 6c0,0 0,0 0,1 0,0 0,0 0,0z"/>
  <path id="8" class="fil0" d="M189 105c-1,0 -2,0 -2,0 -1,-1 -2,-1 -2,-2 0,-1 -1,-2 -1,-2l0 -21 5 0 0 20c0,1 0,1 0,1 0,0 0,0 0,0l4 0 0 4 -4 0 0 0z"/>
  <path id="9" class="fil0" d="M200 105c-1,0 -2,0 -3,0 -1,-1 -1,-1 -1,-2 -1,-1 -1,-2 -1,-2l0 -8 15 0 0 -2c0,0 0,0 0,-1 0,0 0,0 0,0l-15 0 0 -4 15 0c1,0 2,0 2,1 1,0 1,1 2,1 0,1 0,2 0,3l0 14 -14 0zm0 -4l10 0 0 -4 -11 0 0 3c0,1 0,1 0,1 0,0 1,0 1,0z"/>
  <path id="10" class="fil0" d="M220 112l0 0 0 -4 12 0c0,0 0,0 0,0 0,0 0,0 0,0l0 -3 -10 0c-1,0 -2,0 -2,0 -1,-1 -2,-1 -2,-2 -1,-1 -1,-2 -1,-2l0 -15 5 0 0 14c0,1 0,1 0,1 0,0 0,0 0,0l10 0c0,0 0,0 0,0 0,0 0,0 0,-1l0 -14 5 0 0 22c0,1 0,1 -1,2 0,1 -1,1 -1,2 -1,0 -2,0 -3,0l-12 0z"/>
  <path class="fil1" d="M159 50c-21,8 -42,15 -64,23 -2,0 -5,-1 -6,-3l-1 -5 -2 -4 -2 -5c4,-1 6,-5 5,-9 -1,-4 -6,-6 -9,-5l-2 -4 -2 -5 -1 -4c-1,-3 0,-6 3,-6 21,-8 42,-15 63,-23 3,-1 6,1 7,3l2 7 1 2 1 5c-3,1 -5,5 -4,9 1,4 5,6 9,4l2 5 2 7 1 2c1,3 -1,5 -3,6l0 0 0 0zm-23 -21c-2,-1 -3,-1 -5,-1 -1,-1 -3,0 -4,0l-20 7c-2,1 -3,2 -4,3 -2,1 -2,2 -3,3 -1,2 -1,3 -1,5 0,1 0,3 0,4 1,2 2,3 3,4 1,1 2,2 3,3 2,1 3,1 5,1 1,0 3,0 4,0 2,-1 4,-2 5,-3 1,-1 2,-2 2,-4l5 -1c1,0 2,1 3,1 2,0 4,0 6,-1 1,0 2,-1 4,-2 1,-1 2,-2 2,-4 1,-1 1,-2 2,-4 0,-2 -1,-3 -1,-5 -1,-1 -1,-2 -3,-4 -1,-1 -2,-2 -3,-2l0 0zm-2 19c-3,0 -6,0 -8,-1l-7 2c-1,3 -3,5 -6,6 -4,1 -9,-1 -11,-6 -1,-4 1,-9 6,-11l20 -7c4,-1 9,1 11,5 2,5 -1,10 -5,12l0 0zm0 -6c-1,-1 -2,-1 -3,-1 -1,0 -1,1 -1,2 1,1 2,2 2,1 1,0 2,-1 2,-2zm2 -4c-1,-1 -2,-2 -3,-1 0,0 -1,1 -1,2 1,1 2,1 3,1 1,-1 1,-2 1,-2zm-7 2c0,-1 -1,-1 -2,-1 -1,0 -1,1 -1,2 0,1 1,1 2,1 1,0 1,-1 1,-2zm2 -5c0,0 -1,-1 -2,-1 -1,1 -1,2 -1,3 0,1 1,1 2,1 1,-1 2,-2 1,-3zm-17 8l-2 1 -1 -2c0,-1 -1,-1 -1,-1l-2 1c-1,0 -1,0 -1,1l1 2 -2 1c-1,0 -1,1 -1,1l1 2c0,0 0,1 1,1l2 -1 1 2c0,1 1,1 1,1l2 -1c0,0 1,-1 1,-1l-1 -3 2 0c1,-1 1,-1 1,-1l-1 -2c0,-1 -1,-1 -1,-1l0 0zm7 -19l8 -2c4,-2 6,-6 5,-11l-3 1c1,3 -1,6 -3,7l-8 2c-4,2 -6,6 -5,10l3 -1c-1,-2 0,-5 3,-6l0 0z"/>
 </g>
</svg>
